Coordinates
version=1
nRows=10
nColumns=22
inDegrees=yes

Units are S.I. units (second, meters, Newtons, ...)
If the header above contains a line with 'inDegrees', this indicates whether rotational values are in degrees (yes) or radians (no).

endheader
time	pelvis_tilt	pelvis_list	pelvis_rotation	pelvis_tx	pelvis_ty	pelvis_tz	hip_flexion_r	hip_adduction_r	hip_rotation_r	knee_angle_r	ankle_angle_r	subtalar_angle_r	hip_flexion_l	hip_adduction_l	hip_rotation_l	knee_angle_l	ankle_angle_l	subtalar_angle_l	lumbar_extension	lumbar_bending	lumbar_rotation
      2.39000000	    -12.50817844	      9.71779119	    -43.04387206	     -0.43840859	      0.85297890	      0.03383516	     -4.16836251	     -7.63815017	     13.98210295	    -31.60616489	    -14.62118328	     13.81619270	     46.25322811	    -10.52099761	     -6.81541307	    -44.15285172	     12.96911327	      8.04789472	     -7.58762255	     -1.97047775	     24.00619490
      2.40000000	    -12.50672287	      9.25467262	    -42.23992648	     -0.41506758	      0.85423114	      0.04534911	     -2.67874578	     -6.87165969	     13.09802229	    -36.93775887	    -14.15848475	     12.86669451	     44.62871633	     -9.97329937	     -7.00442031	    -41.23850536	     12.58784773	      8.85405273	     -7.35162194	     -1.72975994	     23.23753748
      2.41000000	    -12.39028994	      8.80365203	    -41.34214281	     -0.39182402	      0.85431540	      0.05652676	     -0.87967458	     -6.20904824	     11.95697670	    -42.96967746	    -13.10692495	     11.69784400	     43.01845929	     -9.30106215	     -7.14292339	    -39.30063528	     12.54446469	      9.29861124	     -7.21160829	     -1.57979825	     22.28507129
      2.42000000	    -12.13485509	      8.34947925	    -40.32467723	     -0.36870446	      0.85330237	      0.06732621	      1.07968434	     -5.70639105	     10.60852919	    -49.40756357	    -11.70983200	     10.44493380	     41.40558873	     -8.48596096	     -7.13069743	    -38.29533539	     12.94590654	      9.30076772	     -7.21828175	     -1.52193632	     21.12464746
      2.43000000	    -11.74818900	      7.89077595	    -39.23100495	     -0.34579921	      0.85127278	      0.07780934	      3.13625300	     -5.38261190	      9.17150946	    -56.01914697	    -10.14116825	      9.30097801	     39.77268735	     -7.57634056	     -6.94613329	    -38.11031252	     13.92378588	      8.85212033	     -7.37804818	     -1.54907003	     19.81918794
      2.44000000	    -11.24472654	      7.41591960	    -38.09282794	     -0.32318132	      0.84837938	      0.08803306	      5.24749221	     -5.22417923	      7.72406424	    -62.61271785	     -8.48621366	      8.33863941	     38.09322252	     -6.61120100	     -6.54122324	    -38.57436279	     15.47446431	      8.04339755	     -7.69879409	     -1.63793968	     18.42745317
      2.45000000	    -10.64094491	      6.89988155	    -36.93519770	     -0.30089822	      0.84484652	      0.09805598	      7.38070595	     -5.19050710	      6.31280451	    -69.02167856	     -6.74927633	      7.49505302	     36.34492261	     -5.64951305	     -5.93451856	    -39.51994862	     17.49881480	      7.00428238	     -8.19343085	     -1.74252429	     16.94206882
      2.46000000	     -9.98453589	      6.40272046	    -35.82387009	     -0.27905731	      0.84085776	      0.10795413	      9.64485698	     -5.28138291	      5.02608185	    -75.15375676	     -4.99481640	      6.77546323	     34.54417531	     -4.71141935	     -5.17638239	    -40.71679812	     19.87360355	      5.93731960	     -8.78464804	     -1.88384851	     15.44647933
      2.47000000	     -9.31513093	      5.93178859	    -34.81561275	     -0.25771938	      0.83668807	      0.11785567	     12.09225518	     -5.45829865	      3.90250177	    -80.89942067	     -3.15849337	      6.00829399	     32.69289774	     -3.85975097	     -4.36395288	    -42.00096728	     22.38442466	      4.87816317	     -9.43064006	     -2.04616549	     14.01314157
      2.48000000	     -8.68942499	      5.53624709	    -33.94875498	     -0.23687872	      0.83259003	      0.12784902	     14.82294523	     -5.69056096	      2.99677331	    -86.16112367	     -1.29161759	      5.18322468	     30.80765874	     -3.10766907	     -3.58655081	    -43.18502260	     24.85656710	      3.97260781	    -10.04283923	     -2.23649847	     12.66462238
